<mxfile host="Electron" agent="Mozilla/5.0 (Windows NT 10.0; Win64; x64) AppleWebKit/537.36 (KHTML, like Gecko) draw.io/24.7.17 Chrome/128.0.6613.36 Electron/32.0.1 Safari/537.36" version="24.7.17">
  <diagram id="C5RBs43oDa-KdzZeNtuy" name="Page-1">
    <mxGraphModel dx="439" dy="395" grid="1" gridSize="10" guides="1" tooltips="1" connect="1" arrows="1" fold="1" page="1" pageScale="1" pageWidth="827" pageHeight="1169" math="0" shadow="0">
      <root>
        <mxCell id="WIyWlLk6GJQsqaUBKTNV-0" />
        <mxCell id="WIyWlLk6GJQsqaUBKTNV-1" parent="WIyWlLk6GJQsqaUBKTNV-0" />
        <mxCell id="dZAbsVkr8ragyTUgq_8P-0" value="" style="rounded=1;whiteSpace=wrap;html=1;" vertex="1" parent="WIyWlLk6GJQsqaUBKTNV-1">
          <mxGeometry x="360" y="190" width="60" height="40" as="geometry" />
        </mxCell>
        <mxCell id="dZAbsVkr8ragyTUgq_8P-1" value="key" style="text;html=1;align=center;verticalAlign=middle;whiteSpace=wrap;rounded=0;fontSize=11;fontStyle=1" vertex="1" parent="WIyWlLk6GJQsqaUBKTNV-1">
          <mxGeometry x="370" y="190" width="40" height="30" as="geometry" />
        </mxCell>
        <mxCell id="dZAbsVkr8ragyTUgq_8P-3" value="&lt;span style=&quot;font-size: 7px; font-weight: 400;&quot;&gt;left&lt;/span&gt;" style="text;html=1;align=center;verticalAlign=middle;whiteSpace=wrap;rounded=0;fontSize=7;fontStyle=1" vertex="1" parent="WIyWlLk6GJQsqaUBKTNV-1">
          <mxGeometry x="360" y="220" width="20" height="10" as="geometry" />
        </mxCell>
        <mxCell id="dZAbsVkr8ragyTUgq_8P-4" value="&lt;span style=&quot;font-size: 7px; font-weight: 400;&quot;&gt;right&lt;/span&gt;" style="text;html=1;align=center;verticalAlign=middle;whiteSpace=wrap;rounded=0;fontSize=7;fontStyle=1" vertex="1" parent="WIyWlLk6GJQsqaUBKTNV-1">
          <mxGeometry x="392" y="220" width="28" height="10" as="geometry" />
        </mxCell>
        <mxCell id="dZAbsVkr8ragyTUgq_8P-5" value="" style="rounded=1;whiteSpace=wrap;html=1;" vertex="1" parent="WIyWlLk6GJQsqaUBKTNV-1">
          <mxGeometry x="360" y="340" width="60" height="40" as="geometry" />
        </mxCell>
        <mxCell id="dZAbsVkr8ragyTUgq_8P-6" value="5" style="text;html=1;align=center;verticalAlign=middle;whiteSpace=wrap;rounded=0;fontSize=11;fontStyle=1" vertex="1" parent="WIyWlLk6GJQsqaUBKTNV-1">
          <mxGeometry x="370" y="340" width="40" height="30" as="geometry" />
        </mxCell>
        <mxCell id="dZAbsVkr8ragyTUgq_8P-7" value="&lt;span style=&quot;font-size: 7px; font-weight: 400;&quot;&gt;left&lt;/span&gt;" style="text;html=1;align=center;verticalAlign=middle;whiteSpace=wrap;rounded=0;fontSize=7;fontStyle=1" vertex="1" parent="WIyWlLk6GJQsqaUBKTNV-1">
          <mxGeometry x="360" y="370" width="20" height="10" as="geometry" />
        </mxCell>
        <mxCell id="dZAbsVkr8ragyTUgq_8P-8" value="&lt;span style=&quot;font-size: 7px; font-weight: 400;&quot;&gt;right&lt;/span&gt;" style="text;html=1;align=center;verticalAlign=middle;whiteSpace=wrap;rounded=0;fontSize=7;fontStyle=1" vertex="1" parent="WIyWlLk6GJQsqaUBKTNV-1">
          <mxGeometry x="392" y="370" width="28" height="10" as="geometry" />
        </mxCell>
        <mxCell id="dZAbsVkr8ragyTUgq_8P-9" value="&lt;span style=&quot;font-size: 9px;&quot;&gt;a&lt;/span&gt;" style="text;html=1;align=center;verticalAlign=middle;whiteSpace=wrap;rounded=0;fontSize=9;fontStyle=0" vertex="1" parent="WIyWlLk6GJQsqaUBKTNV-1">
          <mxGeometry x="380" y="330" width="20" height="10" as="geometry" />
        </mxCell>
        <mxCell id="dZAbsVkr8ragyTUgq_8P-10" value="" style="rounded=1;whiteSpace=wrap;html=1;" vertex="1" parent="WIyWlLk6GJQsqaUBKTNV-1">
          <mxGeometry x="310" y="400" width="60" height="40" as="geometry" />
        </mxCell>
        <mxCell id="dZAbsVkr8ragyTUgq_8P-11" value="3" style="text;html=1;align=center;verticalAlign=middle;whiteSpace=wrap;rounded=0;fontSize=11;fontStyle=1" vertex="1" parent="WIyWlLk6GJQsqaUBKTNV-1">
          <mxGeometry x="320" y="400" width="40" height="30" as="geometry" />
        </mxCell>
        <mxCell id="dZAbsVkr8ragyTUgq_8P-12" value="&lt;span style=&quot;font-size: 7px; font-weight: 400;&quot;&gt;left&lt;/span&gt;" style="text;html=1;align=center;verticalAlign=middle;whiteSpace=wrap;rounded=0;fontSize=7;fontStyle=1" vertex="1" parent="WIyWlLk6GJQsqaUBKTNV-1">
          <mxGeometry x="310" y="430" width="20" height="10" as="geometry" />
        </mxCell>
        <mxCell id="dZAbsVkr8ragyTUgq_8P-13" value="&lt;span style=&quot;font-size: 7px; font-weight: 400;&quot;&gt;right&lt;/span&gt;" style="text;html=1;align=center;verticalAlign=middle;whiteSpace=wrap;rounded=0;fontSize=7;fontStyle=1" vertex="1" parent="WIyWlLk6GJQsqaUBKTNV-1">
          <mxGeometry x="342" y="430" width="28" height="10" as="geometry" />
        </mxCell>
        <mxCell id="dZAbsVkr8ragyTUgq_8P-14" value="&lt;span style=&quot;font-size: 9px;&quot;&gt;b&lt;/span&gt;" style="text;html=1;align=center;verticalAlign=middle;whiteSpace=wrap;rounded=0;fontSize=9;fontStyle=0" vertex="1" parent="WIyWlLk6GJQsqaUBKTNV-1">
          <mxGeometry x="330" y="390" width="20" height="10" as="geometry" />
        </mxCell>
        <mxCell id="dZAbsVkr8ragyTUgq_8P-15" value="" style="endArrow=none;html=1;rounded=0;entryX=0.5;entryY=1;entryDx=0;entryDy=0;exitX=0.5;exitY=0;exitDx=0;exitDy=0;" edge="1" parent="WIyWlLk6GJQsqaUBKTNV-1" source="dZAbsVkr8ragyTUgq_8P-10" target="dZAbsVkr8ragyTUgq_8P-7">
          <mxGeometry width="50" height="50" relative="1" as="geometry">
            <mxPoint x="400" y="390" as="sourcePoint" />
            <mxPoint x="370" y="390" as="targetPoint" />
          </mxGeometry>
        </mxCell>
        <mxCell id="dZAbsVkr8ragyTUgq_8P-16" value="&lt;span style=&quot;font-size: 9px;&quot;&gt;&lt;font color=&quot;#fff0fb&quot;&gt;&amp;nbsp;NIL&amp;nbsp;&lt;/font&gt;&lt;/span&gt;" style="text;html=1;align=center;verticalAlign=middle;whiteSpace=wrap;rounded=0;fontSize=9;fontStyle=0;labelBackgroundColor=#595959;" vertex="1" parent="WIyWlLk6GJQsqaUBKTNV-1">
          <mxGeometry x="410" y="390" width="20" height="10" as="geometry" />
        </mxCell>
        <mxCell id="dZAbsVkr8ragyTUgq_8P-17" value="&lt;span style=&quot;font-size: 9px;&quot;&gt;&lt;font color=&quot;#fff0fb&quot;&gt;&amp;nbsp;NIL&amp;nbsp;&lt;/font&gt;&lt;/span&gt;" style="text;html=1;align=center;verticalAlign=middle;whiteSpace=wrap;rounded=0;fontSize=9;fontStyle=0;labelBackgroundColor=#595959;" vertex="1" parent="WIyWlLk6GJQsqaUBKTNV-1">
          <mxGeometry x="360" y="450" width="20" height="10" as="geometry" />
        </mxCell>
        <mxCell id="dZAbsVkr8ragyTUgq_8P-18" value="&lt;span style=&quot;font-size: 9px;&quot;&gt;&lt;font color=&quot;#fff0fb&quot;&gt;&amp;nbsp;NIL&amp;nbsp;&lt;/font&gt;&lt;/span&gt;" style="text;html=1;align=center;verticalAlign=middle;whiteSpace=wrap;rounded=0;fontSize=9;fontStyle=0;labelBackgroundColor=#595959;" vertex="1" parent="WIyWlLk6GJQsqaUBKTNV-1">
          <mxGeometry x="295" y="450" width="20" height="10" as="geometry" />
        </mxCell>
        <mxCell id="dZAbsVkr8ragyTUgq_8P-19" value="" style="endArrow=none;html=1;rounded=0;entryX=0.75;entryY=1;entryDx=0;entryDy=0;exitX=0.5;exitY=0;exitDx=0;exitDy=0;" edge="1" parent="WIyWlLk6GJQsqaUBKTNV-1" source="dZAbsVkr8ragyTUgq_8P-16" target="dZAbsVkr8ragyTUgq_8P-5">
          <mxGeometry width="50" height="50" relative="1" as="geometry">
            <mxPoint x="350" y="410" as="sourcePoint" />
            <mxPoint x="380" y="390" as="targetPoint" />
          </mxGeometry>
        </mxCell>
        <mxCell id="dZAbsVkr8ragyTUgq_8P-20" value="" style="endArrow=none;html=1;rounded=0;entryX=0.5;entryY=1;entryDx=0;entryDy=0;exitX=0.5;exitY=0;exitDx=0;exitDy=0;" edge="1" parent="WIyWlLk6GJQsqaUBKTNV-1" source="dZAbsVkr8ragyTUgq_8P-18" target="dZAbsVkr8ragyTUgq_8P-12">
          <mxGeometry width="50" height="50" relative="1" as="geometry">
            <mxPoint x="360" y="420" as="sourcePoint" />
            <mxPoint x="390" y="400" as="targetPoint" />
          </mxGeometry>
        </mxCell>
        <mxCell id="dZAbsVkr8ragyTUgq_8P-21" value="" style="endArrow=none;html=1;rounded=0;entryX=0.5;entryY=0;entryDx=0;entryDy=0;exitX=0.5;exitY=1;exitDx=0;exitDy=0;" edge="1" parent="WIyWlLk6GJQsqaUBKTNV-1" source="dZAbsVkr8ragyTUgq_8P-13" target="dZAbsVkr8ragyTUgq_8P-17">
          <mxGeometry width="50" height="50" relative="1" as="geometry">
            <mxPoint x="370" y="430" as="sourcePoint" />
            <mxPoint x="400" y="410" as="targetPoint" />
          </mxGeometry>
        </mxCell>
      </root>
    </mxGraphModel>
  </diagram>
</mxfile>
